<svg width="105" height="66" viewBox="0 0 105 66" fill="none" xmlns="http://www.w3.org/2000/svg">
<g clip-path="url(#clip0_472_556)">
<path fill-rule="evenodd" clip-rule="evenodd" d="M64.5995 27.8283L70.6718 44.1265H61.3901L58.5144 35.8169L64.5995 27.8283ZM29.7322 44.1265L45.7409 0.39502L54.3935 0.446393L62.3401 21.7534C59.8624 22.6525 56.1651 23.9625 54.5861 24.4505L50.5165 12.6732L38.8213 43.9981L29.745 44.1265H29.7322Z" fill="white"/>
<path d="M64.5995 27.8283L70.6718 44.1265H61.3901L58.5144 35.8169L64.5995 27.8283ZM29.7322 44.1265L45.7409 0.39502L54.3935 0.446393L62.3401 21.7534C59.8624 22.6525 56.1651 23.9625 54.5861 24.4505L50.5165 12.6732L38.8213 43.9981L29.745 44.1265H29.7322Z" stroke="#231F20" stroke-width="0.22" stroke-miterlimit="2.61"/>
<path fill-rule="evenodd" clip-rule="evenodd" d="M71.0184 9.41113H74.8569V13.4182H70.7488V17.8877H68.438C65.4339 14.2916 68.3481 10.8239 71.0055 9.41113" fill="#2E3192"/>
<path fill-rule="evenodd" clip-rule="evenodd" d="M62.969 13.418V9.41088H67.0771V4.94141H70.7615V8.51185C68.5021 9.9503 66.769 11.5686 65.6778 13.418H62.969Z" fill="#44C8F5"/>
<path fill-rule="evenodd" clip-rule="evenodd" d="M72.0582 20.0836C56.5887 26.7493 45.7023 34.8535 38.8726 44.0878L29.6038 44.2162C39.9638 30.7179 52.9171 20.7387 72.0582 20.0708" fill="#00A0E4"/>
<path fill-rule="evenodd" clip-rule="evenodd" d="M58.5914 36.3175L56.717 30.628C60.2731 27.6612 64.5481 25.298 69.0156 23.7183C65.0744 27.6868 61.4157 31.8481 58.5914 36.3175Z" fill="#00A0E4"/>
<path d="M4.35098 47.1753L3.40279 50.4543H4.17969C4.73434 50.4543 5.13604 50.3706 5.38482 50.2034C5.63359 50.0322 5.8477 49.7181 6.02714 49.2614H6.25348L5.40317 52.2711H5.15847C5.23188 52.0183 5.26859 51.8021 5.26859 51.6227C5.26859 51.4473 5.23188 51.3066 5.15847 51.2006C5.08914 51.0945 4.99126 51.0171 4.86484 50.9681C4.74249 50.9151 4.48148 50.8886 4.08182 50.8886H3.29268L2.4913 53.6353C2.41381 53.9004 2.37507 54.1022 2.37507 54.2409C2.37507 54.3469 2.42605 54.4407 2.52801 54.5223C2.59734 54.5794 2.77066 54.6079 3.04798 54.6079H3.78207C4.57732 54.6079 5.21353 54.4672 5.69068 54.1858C6.17192 53.9044 6.60217 53.4151 6.98145 52.7177H7.20779L6.42477 55.0239H0.0137671L0.0932929 54.7976C0.411396 54.7894 0.625504 54.7609 0.735616 54.7119C0.898746 54.6385 1.01702 54.5447 1.09042 54.4305C1.20054 54.2633 1.33104 53.9126 1.48194 53.3784L2.93787 48.3743C3.05206 47.9706 3.10915 47.6627 3.10915 47.4506C3.10915 47.2957 3.0541 47.1753 2.94399 47.0897C2.83795 47 2.62792 46.9551 2.3139 46.9551H2.18543L2.25884 46.7288H8.21716L7.7033 48.7292H7.47696C7.5055 48.5416 7.51978 48.3845 7.51978 48.2581C7.51978 48.042 7.46676 47.8605 7.36073 47.7137C7.22206 47.5261 7.02019 47.3833 6.75511 47.2855C6.55935 47.212 6.1087 47.1753 5.40317 47.1753H4.35098Z" fill="white"/>
<path d="M11.7257 49.4877L10.9121 52.2711C11.6748 51.1333 12.258 50.3849 12.6617 50.026C13.0695 49.6672 13.461 49.4877 13.8362 49.4877C14.0401 49.4877 14.2074 49.555 14.3379 49.6896C14.4724 49.8242 14.5397 49.9995 14.5397 50.2157C14.5397 50.4604 14.4806 50.7866 14.3623 51.1945L13.616 53.7699C13.5304 54.0676 13.4875 54.2491 13.4875 54.3143C13.4875 54.3714 13.5039 54.4203 13.5365 54.4611C13.5691 54.4978 13.6038 54.5162 13.6405 54.5162C13.6894 54.5162 13.7486 54.4897 13.8179 54.4367C14.034 54.2654 14.2706 54.0044 14.5275 53.6536L14.7171 53.7699C14.3379 54.3123 13.979 54.6997 13.6405 54.9322C13.4039 55.0912 13.1919 55.1707 13.0043 55.1707C12.8534 55.1707 12.7331 55.1238 12.6433 55.03C12.5536 54.9403 12.5088 54.818 12.5088 54.663C12.5088 54.4672 12.5781 54.1308 12.7168 53.6536L13.4264 51.1945C13.5161 50.8886 13.561 50.65 13.561 50.4787C13.561 50.3972 13.5344 50.3319 13.4814 50.283C13.4284 50.2299 13.3632 50.2034 13.2857 50.2034C13.1715 50.2034 13.0349 50.2524 12.8758 50.3503C12.574 50.5338 12.26 50.8376 11.9337 51.2617C11.6075 51.6818 11.2629 52.2201 10.8999 52.8767C10.7082 53.2234 10.5492 53.6027 10.4227 54.0146L10.1169 55.0239H9.19927L10.3126 51.1945C10.4431 50.7336 10.5084 50.4563 10.5084 50.3625C10.5084 50.2728 10.4717 50.1953 10.3983 50.13C10.3289 50.0607 10.2413 50.026 10.1352 50.026C10.0863 50.026 10.0006 50.0342 9.8783 50.0505L9.64584 50.0872L9.60913 49.867L11.7257 49.4877Z" fill="white"/>
<path d="M19.8264 46.325L18.1075 52.265C18.8497 51.1476 19.4288 50.4053 19.8448 50.0383C20.2608 49.6712 20.6584 49.4877 21.0377 49.4877C21.2334 49.4877 21.3966 49.555 21.5271 49.6896C21.6576 49.8242 21.7228 50.0036 21.7228 50.2279C21.7228 50.4971 21.6657 50.8233 21.5515 51.2067L20.8052 53.7699C20.7114 54.0798 20.6645 54.2511 20.6645 54.2837C20.6645 54.3408 20.6808 54.3877 20.7135 54.4244C20.7502 54.4611 20.7909 54.4795 20.8358 54.4795C20.8888 54.4795 20.95 54.453 21.0193 54.4C21.2518 54.2205 21.4822 53.9717 21.7106 53.6536L21.9002 53.7699C21.7616 53.986 21.5679 54.2246 21.3191 54.4856C21.0744 54.7425 20.8623 54.922 20.6829 55.0239C20.5075 55.1218 20.3505 55.1707 20.2118 55.1707C20.0609 55.1707 19.9366 55.1218 19.8387 55.0239C19.7449 54.9301 19.698 54.8078 19.698 54.6569C19.698 54.4774 19.7693 54.143 19.9121 53.6536L20.6156 51.2067C20.7053 50.9008 20.7502 50.6602 20.7502 50.4848C20.7502 50.4033 20.7237 50.338 20.6706 50.2891C20.6217 50.2401 20.5564 50.2157 20.4749 50.2157C20.3566 50.2157 20.222 50.2605 20.0711 50.3503C19.7938 50.5215 19.4737 50.8396 19.1107 51.3046C19.0128 51.431 18.6866 51.9408 18.1319 52.8339C17.9606 53.1194 17.8199 53.4314 17.7098 53.7699L17.3183 55.0239H16.4007L18.4133 48.0257L18.6274 47.2671C18.6274 47.1611 18.5826 47.0673 18.4929 46.9857C18.4072 46.9041 18.3012 46.8634 18.1748 46.8634C18.1013 46.8634 17.9892 46.8756 17.8383 46.9001L17.7098 46.9184V46.6798L19.8264 46.325Z" fill="white"/>
<path d="M29.2177 49.4877L28.0248 53.6353L27.8902 54.192C27.878 54.245 27.8718 54.2898 27.8718 54.3265C27.8718 54.3918 27.8922 54.4489 27.933 54.4978C27.9656 54.5345 28.0064 54.5529 28.0554 54.5529C28.1084 54.5529 28.1777 54.5203 28.2633 54.455C28.4224 54.3367 28.6345 54.092 28.8996 53.7209L29.1075 53.8677C28.8261 54.2919 28.5366 54.6161 28.2389 54.8404C27.9412 55.0606 27.6659 55.1707 27.413 55.1707C27.2377 55.1707 27.1051 55.1259 27.0154 55.0362C26.9298 54.9505 26.8869 54.8241 26.8869 54.6569C26.8869 54.457 26.9318 54.194 27.0215 53.8677L27.15 53.4089C26.6157 54.1063 26.1243 54.5937 25.6757 54.871C25.3535 55.0708 25.0375 55.1707 24.7275 55.1707C24.4298 55.1707 24.1729 55.0484 23.9567 54.8037C23.7406 54.5549 23.6325 54.2144 23.6325 53.7821C23.6325 53.1337 23.8262 52.4506 24.2137 51.7328C24.6052 51.0109 25.1007 50.4339 25.7002 50.0016C26.1692 49.659 26.6117 49.4877 27.0276 49.4877C27.2764 49.4877 27.4824 49.553 27.6455 49.6835C27.8127 49.814 27.9391 50.0301 28.0248 50.3319L28.245 49.6345L29.2177 49.4877ZM27.0399 49.8058C26.7789 49.8058 26.5015 49.9282 26.2079 50.1729C25.7919 50.5195 25.4208 51.0334 25.0946 51.7144C24.7724 52.3955 24.6113 53.0113 24.6113 53.5619C24.6113 53.8392 24.6806 54.0594 24.8193 54.2226C24.9579 54.3816 25.117 54.4611 25.2964 54.4611C25.741 54.4611 26.2242 54.1328 26.7462 53.4762C27.4436 52.6035 27.7923 51.7083 27.7923 50.7907C27.7923 50.4441 27.725 50.1932 27.5904 50.0383C27.4559 49.8833 27.2723 49.8058 27.0399 49.8058Z" fill="white"/>
<path d="M33.2931 49.4877L32.4795 52.2711C33.2421 51.1333 33.8253 50.3849 34.2291 50.026C34.6369 49.6672 35.0284 49.4877 35.4036 49.4877C35.6075 49.4877 35.7747 49.555 35.9052 49.6896C36.0398 49.8242 36.1071 49.9995 36.1071 50.2157C36.1071 50.4604 36.048 50.7866 35.9297 51.1945L35.1834 53.7699C35.0977 54.0676 35.0549 54.2491 35.0549 54.3143C35.0549 54.3714 35.0712 54.4203 35.1039 54.4611C35.1365 54.4978 35.1712 54.5162 35.2079 54.5162C35.2568 54.5162 35.3159 54.4897 35.3853 54.4367C35.6014 54.2654 35.838 54.0044 36.0949 53.6536L36.2845 53.7699C35.9052 54.3123 35.5464 54.6997 35.2079 54.9322C34.9713 55.0912 34.7593 55.1707 34.5717 55.1707C34.4208 55.1707 34.3005 55.1238 34.2107 55.03C34.121 54.9403 34.0761 54.818 34.0761 54.663C34.0761 54.4672 34.1455 54.1308 34.2841 53.6536L34.9938 51.1945C35.0835 50.8886 35.1283 50.65 35.1283 50.4787C35.1283 50.3972 35.1018 50.3319 35.0488 50.283C34.9958 50.2299 34.9305 50.2034 34.8531 50.2034C34.7389 50.2034 34.6022 50.2524 34.4432 50.3503C34.1414 50.5338 33.8274 50.8376 33.5011 51.2617C33.1749 51.6818 32.8302 52.2201 32.4673 52.8767C32.2756 53.2234 32.1166 53.6027 31.9901 54.0146L31.6843 55.0239H30.7667L31.88 51.1945C32.0105 50.7336 32.0758 50.4563 32.0758 50.3625C32.0758 50.2728 32.0391 50.1953 31.9657 50.13C31.8963 50.0607 31.8086 50.026 31.7026 50.026C31.6537 50.026 31.568 50.0342 31.4457 50.0505L31.2132 50.0872L31.1765 49.867L33.2931 49.4877Z" fill="white"/>
<path d="M42.5561 53.6903C42.132 54.2001 41.7038 54.5753 41.2715 54.8159C40.8392 55.0525 40.3824 55.1707 39.9012 55.1707C39.3221 55.1707 38.8694 55.0076 38.5431 54.6814C38.2209 54.3551 38.0599 53.9167 38.0599 53.3661C38.0599 52.7421 38.2332 52.1284 38.5798 51.5248C38.9306 50.9212 39.3996 50.4318 39.9868 50.0566C40.5782 49.6773 41.1573 49.4877 41.7242 49.4877C42.1687 49.4877 42.5011 49.5815 42.7213 49.7691C42.9415 49.9526 43.0516 50.179 43.0516 50.4481C43.0516 50.701 42.9741 50.9171 42.8192 51.0966C42.705 51.2352 42.5643 51.3046 42.3971 51.3046C42.2706 51.3046 42.1646 51.2638 42.079 51.1822C41.9974 51.1007 41.9566 50.9987 41.9566 50.8764C41.9566 50.7989 41.9709 50.7275 41.9994 50.6622C42.0321 50.597 42.0953 50.5195 42.1891 50.4298C42.287 50.336 42.3461 50.2687 42.3665 50.2279C42.3869 50.1871 42.3971 50.1443 42.3971 50.0994C42.3971 50.0138 42.3583 49.9424 42.2808 49.8853C42.1626 49.8038 41.9954 49.763 41.7792 49.763C41.3795 49.763 40.984 49.9037 40.5924 50.1851C40.2009 50.4665 39.8665 50.8662 39.5892 51.3841C39.2548 52.0121 39.0876 52.6402 39.0876 53.2682C39.0876 53.6842 39.2058 54.0146 39.4424 54.2593C39.6789 54.4999 40.0011 54.6202 40.4089 54.6202C40.723 54.6202 41.0329 54.5427 41.3388 54.3877C41.6487 54.2287 41.9954 53.9432 42.3787 53.5313L42.5561 53.6903Z" fill="white"/>
<path d="M46.9636 47.0591C47.1349 47.0591 47.2797 47.1182 47.398 47.2365C47.5162 47.3548 47.5754 47.4996 47.5754 47.6709C47.5754 47.8381 47.5142 47.9828 47.3918 48.1052C47.2736 48.2235 47.1308 48.2826 46.9636 48.2826C46.7964 48.2826 46.6516 48.2235 46.5293 48.1052C46.411 47.9828 46.3519 47.8381 46.3519 47.6709C46.3519 47.4996 46.411 47.3548 46.5293 47.2365C46.6476 47.1182 46.7923 47.0591 46.9636 47.0591ZM47.0431 49.4877L45.8319 53.776C45.7503 54.0655 45.7096 54.2389 45.7096 54.296C45.7096 54.3612 45.7279 54.4142 45.7646 54.455C45.8054 54.4958 45.8523 54.5162 45.9053 54.5162C45.9665 54.5162 46.0399 54.4836 46.1255 54.4183C46.358 54.2348 46.5925 53.9738 46.829 53.6353L47.0431 53.776C46.7658 54.2001 46.4396 54.557 46.0644 54.8465C45.787 55.0627 45.522 55.1707 45.2691 55.1707C45.1019 55.1707 44.9653 55.1218 44.8592 55.0239C44.7532 54.922 44.7002 54.7955 44.7002 54.6446C44.7002 54.4938 44.7512 54.2429 44.8531 53.8922L45.6484 51.1516C45.7789 50.703 45.8441 50.4216 45.8441 50.3074C45.8441 50.2177 45.8115 50.1443 45.7463 50.0872C45.6851 50.0301 45.5994 50.0016 45.4893 50.0016C45.3996 50.0016 45.2141 50.024 44.9327 50.0689V49.8303L47.0431 49.4877Z" fill="white"/>
<path d="M51.1632 49.4877L50.3496 52.2711C51.1123 51.1333 51.6955 50.3849 52.0992 50.026C52.507 49.6672 52.8985 49.4877 53.2737 49.4877C53.4776 49.4877 53.6449 49.555 53.7754 49.6896C53.9099 49.8242 53.9772 49.9995 53.9772 50.2157C53.9772 50.4604 53.9181 50.7866 53.7998 51.1945L53.0535 53.7699C52.9679 54.0676 52.925 54.2491 52.925 54.3143C52.925 54.3714 52.9414 54.4203 52.974 54.4611C53.0066 54.4978 53.0413 54.5162 53.078 54.5162C53.1269 54.5162 53.1861 54.4897 53.2554 54.4367C53.4715 54.2654 53.7081 54.0044 53.965 53.6536L54.1546 53.7699C53.7754 54.3123 53.4165 54.6997 53.078 54.9322C52.8414 55.0912 52.6294 55.1707 52.4418 55.1707C52.2909 55.1707 52.1706 55.1238 52.0808 55.03C51.9911 54.9403 51.9463 54.818 51.9463 54.663C51.9463 54.4672 52.0156 54.1308 52.1543 53.6536L52.8639 51.1945C52.9536 50.8886 52.9985 50.65 52.9985 50.4787C52.9985 50.3972 52.9719 50.3319 52.9189 50.283C52.8659 50.2299 52.8007 50.2034 52.7232 50.2034C52.609 50.2034 52.4724 50.2524 52.3133 50.3503C52.0115 50.5338 51.6975 50.8376 51.3712 51.2617C51.045 51.6818 50.7004 52.2201 50.3374 52.8767C50.1457 53.2234 49.9867 53.6027 49.8602 54.0146L49.5544 55.0239H48.6368L49.7501 51.1945C49.8806 50.7336 49.9459 50.4563 49.9459 50.3625C49.9459 50.2728 49.9092 50.1953 49.8358 50.13C49.7664 50.0607 49.6788 50.026 49.5727 50.026C49.5238 50.026 49.4381 50.0342 49.3158 50.0505L49.0833 50.0872L49.0466 49.867L51.1632 49.4877Z" fill="white"/>
<path d="M62.1146 49.867L61.9372 50.5032H60.9156C60.9931 50.7234 61.0319 50.9294 61.0319 51.121C61.0319 51.6594 60.8035 52.1386 60.3467 52.5586C59.8859 52.9787 59.2537 53.2111 58.4503 53.256C58.018 53.3865 57.6938 53.5415 57.4777 53.7209C57.3961 53.7862 57.3553 53.8535 57.3553 53.9228C57.3553 54.0044 57.392 54.0798 57.4654 54.1491C57.5388 54.2144 57.7244 54.2817 58.0221 54.351L59.2089 54.6263C59.8655 54.7813 60.2998 54.9648 60.5119 55.1769C60.7199 55.393 60.8239 55.6418 60.8239 55.9232C60.8239 56.2576 60.6995 56.5635 60.4507 56.8408C60.206 57.1181 59.8451 57.3343 59.3679 57.4892C58.8949 57.6483 58.3708 57.7278 57.7958 57.7278C57.2901 57.7278 56.8292 57.6666 56.4132 57.5443C55.9973 57.426 55.6996 57.2649 55.5201 57.061C55.3407 56.8571 55.2509 56.6471 55.2509 56.4309C55.2509 56.2556 55.3101 56.072 55.4284 55.8804C55.5425 55.6928 55.6873 55.5378 55.8627 55.4154C55.9728 55.338 56.2848 55.1544 56.7986 54.8649C56.611 54.7181 56.5172 54.557 56.5172 54.3816C56.5172 54.2185 56.5988 54.0451 56.7619 53.8616C56.9291 53.6781 57.2799 53.4762 57.8141 53.256C57.3655 53.1704 57.0087 52.9828 56.7436 52.6932C56.4826 52.4037 56.3521 52.0815 56.3521 51.7267C56.3521 51.1476 56.6049 50.6296 57.1106 50.1729C57.6204 49.7161 58.2974 49.4877 59.1416 49.4877C59.4475 49.4877 59.6983 49.5183 59.894 49.5795C60.0898 49.6406 60.2794 49.7365 60.4629 49.867H62.1146ZM59.9919 50.8274C59.9919 50.5012 59.9001 50.2442 59.7166 50.0566C59.5372 49.869 59.3006 49.7752 59.007 49.7752C58.5462 49.7752 58.1649 50.0077 57.8631 50.4726C57.5654 50.9334 57.4165 51.4147 57.4165 51.9163C57.4165 52.2303 57.5123 52.4873 57.704 52.6871C57.8957 52.8869 58.1281 52.9868 58.4014 52.9868C58.6175 52.9868 58.8255 52.9277 59.0254 52.8094C59.2293 52.6912 59.4006 52.528 59.5392 52.32C59.6779 52.1121 59.788 51.847 59.8696 51.5248C59.9511 51.2026 59.9919 50.9702 59.9919 50.8274ZM57.0617 55.0239C56.7314 55.1748 56.4805 55.3685 56.3093 55.6051C56.142 55.8416 56.0584 56.0741 56.0584 56.3025C56.0584 56.5716 56.1808 56.7939 56.4255 56.9692C56.7762 57.2221 57.2901 57.3485 57.9671 57.3485C58.5502 57.3485 59.0478 57.2486 59.4597 57.0488C59.8757 56.853 60.0837 56.5981 60.0837 56.2841C60.0837 56.1251 60.0062 55.9742 59.8512 55.8314C59.7003 55.6887 59.4046 55.5724 58.9642 55.4827C58.7236 55.4338 58.0894 55.2809 57.0617 55.0239Z" fill="white"/>
<path d="M69.1908 50.4298H73.0203L73.6259 48.3805C73.7401 47.9808 73.7972 47.6709 73.7972 47.4506C73.7972 47.3446 73.7707 47.2549 73.7177 47.1815C73.6687 47.104 73.5913 47.0469 73.4852 47.0102C73.3792 46.9735 73.1712 46.9551 72.8613 46.9551L72.9224 46.7288H76.2625L76.1891 46.9551C75.9077 46.951 75.6977 46.9796 75.559 47.0408C75.3633 47.1264 75.2185 47.2365 75.1247 47.3711C74.9901 47.5628 74.8535 47.8992 74.7148 48.3805L73.2528 53.3906C73.1304 53.8066 73.0692 54.1043 73.0692 54.2837C73.0692 54.4387 73.1223 54.557 73.2283 54.6385C73.3384 54.716 73.5974 54.769 74.0052 54.7976L73.9379 55.0239H70.7079L70.7936 54.7976C71.1117 54.7894 71.3238 54.7609 71.4298 54.7119C71.5929 54.6385 71.7112 54.5447 71.7846 54.4305C71.8906 54.2715 72.0211 53.9248 72.1761 53.3906L72.9224 50.8519H69.0746L68.3222 53.3906C68.2039 53.7984 68.1448 54.0961 68.1448 54.2837C68.1448 54.4387 68.1978 54.557 68.3038 54.6385C68.4098 54.716 68.6668 54.769 69.0746 54.7976L69.0257 55.0239H65.7712L65.8508 54.7976C66.1729 54.7894 66.387 54.7609 66.4931 54.7119C66.6562 54.6385 66.7765 54.5447 66.854 54.4305C66.96 54.2633 67.0905 53.9167 67.2455 53.3906L68.7137 48.3805C68.8319 47.9726 68.8911 47.6627 68.8911 47.4506C68.8911 47.3446 68.8646 47.2549 68.8116 47.1815C68.7626 47.104 68.6831 47.0469 68.573 47.0102C68.4669 46.9735 68.2569 46.9551 67.9429 46.9551L68.0163 46.7288H71.2891L71.2218 46.9551C70.9486 46.951 70.7467 46.9796 70.6162 47.0408C70.4245 47.1223 70.2838 47.2304 70.1941 47.365C70.0717 47.5444 69.9372 47.8829 69.7903 48.3805L69.1908 50.4298Z" fill="white"/>
<path d="M77.7487 52.7177C77.7202 52.9216 77.7059 53.0908 77.7059 53.2254C77.7059 53.5884 77.8344 53.8983 78.0913 54.1553C78.3482 54.4081 78.6602 54.5345 79.0273 54.5345C79.3209 54.5345 79.6023 54.4754 79.8715 54.3571C80.1447 54.2348 80.5485 53.9677 81.0827 53.5558L81.2112 53.7332C80.2446 54.6915 79.3229 55.1707 78.4461 55.1707C77.8507 55.1707 77.4021 54.9831 77.1003 54.6079C76.7985 54.2327 76.6476 53.8188 76.6476 53.3661C76.6476 52.7585 76.8352 52.1365 77.2104 51.5003C77.5856 50.8641 78.0566 50.3706 78.6235 50.0199C79.1904 49.6651 79.7736 49.4877 80.3731 49.4877C80.8054 49.4877 81.1255 49.5754 81.3335 49.7508C81.5415 49.9261 81.6455 50.1341 81.6455 50.3747C81.6455 50.7132 81.5109 51.0374 81.2418 51.3474C80.887 51.7511 80.3649 52.0774 79.6757 52.3262C79.2189 52.4934 78.5766 52.6239 77.7487 52.7177ZM77.7916 52.4179C78.3951 52.3486 78.8866 52.2303 79.2658 52.0631C79.7675 51.8388 80.1427 51.5717 80.3914 51.2617C80.6443 50.9477 80.7707 50.65 80.7707 50.3686C80.7707 50.1973 80.7157 50.0587 80.6056 49.9526C80.4995 49.8466 80.3466 49.7936 80.1467 49.7936C79.7308 49.7936 79.2883 50.0158 78.8193 50.4604C78.3544 50.9008 78.0118 51.5533 77.7916 52.4179Z" fill="white"/>
<path d="M88.5668 49.4877L87.3739 53.6353L87.2393 54.192C87.2271 54.245 87.221 54.2898 87.221 54.3265C87.221 54.3918 87.2413 54.4489 87.2821 54.4978C87.3148 54.5345 87.3555 54.5529 87.4045 54.5529C87.4575 54.5529 87.5268 54.5203 87.6125 54.455C87.7715 54.3367 87.9836 54.092 88.2487 53.7209L88.4567 53.8677C88.1753 54.2919 87.8857 54.6161 87.588 54.8404C87.2903 55.0606 87.015 55.1707 86.7622 55.1707C86.5868 55.1707 86.4542 55.1259 86.3645 55.0362C86.2789 54.9505 86.2361 54.8241 86.2361 54.6569C86.2361 54.457 86.2809 54.194 86.3706 53.8677L86.4991 53.4089C85.9649 54.1063 85.4734 54.5937 85.0248 54.871C84.7026 55.0708 84.3866 55.1707 84.0766 55.1707C83.7789 55.1707 83.522 55.0484 83.3058 54.8037C83.0897 54.5549 82.9816 54.2144 82.9816 53.7821C82.9816 53.1337 83.1753 52.4506 83.5628 51.7328C83.9543 51.0109 84.4498 50.4339 85.0493 50.0016C85.5183 49.659 85.9608 49.4877 86.3768 49.4877C86.6255 49.4877 86.8315 49.553 86.9946 49.6835C87.1618 49.814 87.2882 50.0301 87.3739 50.3319L87.5941 49.6345L88.5668 49.4877ZM86.389 49.8058C86.128 49.8058 85.8507 49.9282 85.557 50.1729C85.1411 50.5195 84.7699 51.0334 84.4437 51.7144C84.1215 52.3955 83.9604 53.0113 83.9604 53.5619C83.9604 53.8392 84.0297 54.0594 84.1684 54.2226C84.3071 54.3816 84.4661 54.4611 84.6455 54.4611C85.0901 54.4611 85.5733 54.1328 86.0954 53.4762C86.7927 52.6035 87.1414 51.7083 87.1414 50.7907C87.1414 50.4441 87.0741 50.1932 86.9396 50.0383C86.805 49.8833 86.6215 49.8058 86.389 49.8058Z" fill="white"/>
<path d="M93.6154 46.325L91.5232 53.6047C91.4213 53.9677 91.3703 54.1899 91.3703 54.2715C91.3703 54.3327 91.3886 54.3836 91.4254 54.4244C91.4661 54.4652 91.5151 54.4856 91.5722 54.4856C91.6497 54.4856 91.7333 54.4509 91.823 54.3816C92.035 54.2144 92.2573 53.9554 92.4898 53.6047L92.6733 53.7943C92.2859 54.3408 91.929 54.7221 91.6028 54.9383C91.3621 55.0933 91.1338 55.1707 90.9176 55.1707C90.7626 55.1707 90.6321 55.1177 90.5261 55.0117C90.4241 54.9057 90.3732 54.7833 90.3732 54.6446C90.3732 54.4978 90.4384 54.196 90.5689 53.7393L92.2267 48.0012C92.3613 47.5322 92.4286 47.263 92.4286 47.1937C92.4286 47.0958 92.3899 47.0163 92.3124 46.9551C92.2349 46.8899 92.1146 46.8572 91.9514 46.8572C91.8576 46.8572 91.7149 46.8715 91.5232 46.9001V46.6737L93.6154 46.325Z" fill="white"/>
<path d="M97.3807 47.9706L96.9035 49.6345H97.8639L97.7599 50.0199H96.8056L95.7534 53.6292C95.6392 54.0166 95.5822 54.2674 95.5822 54.3816C95.5822 54.4509 95.5985 54.5039 95.6311 54.5407C95.6637 54.5774 95.7025 54.5957 95.7473 54.5957C95.8493 54.5957 95.9839 54.5243 96.1511 54.3816C96.2489 54.3 96.4671 54.0492 96.8056 53.6292L97.0075 53.7821C96.6323 54.3286 96.2775 54.714 95.9431 54.9383C95.7147 55.0933 95.4843 55.1707 95.2518 55.1707C95.0724 55.1707 94.9256 55.1157 94.8114 55.0056C94.6972 54.8914 94.6401 54.7466 94.6401 54.5712C94.6401 54.351 94.7053 54.0146 94.8358 53.5619L95.8574 50.0199H94.9337L94.9949 49.7813C95.4435 49.659 95.8167 49.4775 96.1144 49.2369C96.4121 48.9922 96.7445 48.5701 97.1115 47.9706H97.3807Z" fill="white"/>
<path d="M102.039 46.325L100.32 52.265C101.063 51.1476 101.642 50.4053 102.058 50.0383C102.474 49.6712 102.871 49.4877 103.251 49.4877C103.446 49.4877 103.609 49.555 103.74 49.6896C103.87 49.8242 103.936 50.0036 103.936 50.2279C103.936 50.4971 103.879 50.8233 103.764 51.2067L103.018 53.7699C102.924 54.0798 102.877 54.2511 102.877 54.2837C102.877 54.3408 102.894 54.3877 102.926 54.4244C102.963 54.4611 103.004 54.4795 103.049 54.4795C103.102 54.4795 103.163 54.453 103.232 54.4C103.465 54.2205 103.695 53.9717 103.923 53.6536L104.113 53.7699C103.974 53.986 103.781 54.2246 103.532 54.4856C103.287 54.7425 103.075 54.922 102.896 55.0239C102.72 55.1218 102.563 55.1707 102.425 55.1707C102.274 55.1707 102.149 55.1218 102.052 55.0239C101.958 54.9301 101.911 54.8078 101.911 54.6569C101.911 54.4774 101.982 54.143 102.125 53.6536L102.828 51.2067C102.918 50.9008 102.963 50.6602 102.963 50.4848C102.963 50.4033 102.937 50.338 102.884 50.2891C102.835 50.2401 102.769 50.2157 102.688 50.2157C102.57 50.2157 102.435 50.2605 102.284 50.3503C102.007 50.5215 101.687 50.8396 101.324 51.3046C101.226 51.431 100.899 51.9408 100.345 52.8339C100.174 53.1194 100.033 53.4314 99.9227 53.7699L99.5312 55.0239H98.6136L100.626 48.0257L100.84 47.2671C100.84 47.1611 100.795 47.0673 100.706 46.9857C100.62 46.9041 100.514 46.8634 100.388 46.8634C100.314 46.8634 100.202 46.8756 100.051 46.9001L99.9227 46.9184V46.6798L102.039 46.325Z" fill="white"/>
</g>
<defs>
<clipPath id="clip0_472_556">
<rect width="105" height="65" fill="white" transform="translate(0 0.253906)"/>
</clipPath>
</defs>
</svg>
