<svg width="106" height="66" viewBox="0 0 106 66" fill="none" xmlns="http://www.w3.org/2000/svg">
<g clip-path="url(#clip0_472_440)">
<path fill-rule="evenodd" clip-rule="evenodd" d="M65.2587 27.8111L71.331 44.1093H62.0493L59.1736 35.7997L65.2587 27.8111ZM30.3914 44.1093L46.4 0.377808L55.0527 0.429181L62.9993 21.7362C60.5216 22.6353 56.8243 23.9453 55.2453 24.4333L51.1757 12.656L39.4805 43.9809L30.4042 44.1093H30.3914Z" fill="black"/>
<path d="M65.2587 27.8111L71.331 44.1093H62.0493L59.1736 35.7997L65.2587 27.8111ZM30.3914 44.1093L46.4 0.377808L55.0527 0.429181L62.9993 21.7362C60.5216 22.6353 56.8243 23.9453 55.2453 24.4333L51.1757 12.656L39.4805 43.9809L30.4042 44.1093H30.3914Z" stroke="#231F20" stroke-width="0.22" stroke-miterlimit="2.61"/>
<path fill-rule="evenodd" clip-rule="evenodd" d="M71.6775 9.3938H75.516V13.4009H71.408V17.8704H69.0972C66.0931 14.2743 69.0073 10.8066 71.6647 9.3938" fill="#2E3192"/>
<path fill-rule="evenodd" clip-rule="evenodd" d="M63.6282 13.4009V9.39379H67.7363V4.92432H71.4207V8.49476C69.1612 9.93321 67.4281 11.5515 66.3369 13.4009H63.6282Z" fill="#44C8F5"/>
<path fill-rule="evenodd" clip-rule="evenodd" d="M72.7174 20.0666C57.2479 26.7322 46.3615 34.8364 39.5318 44.0707L30.2629 44.1991C40.623 30.7008 53.5763 20.7216 72.7174 20.0537" fill="#00A0E4"/>
<path fill-rule="evenodd" clip-rule="evenodd" d="M59.2505 36.3006L57.3762 30.611C60.9323 27.6442 65.2072 25.281 69.6748 23.7013C65.7336 27.6699 62.0748 31.8311 59.2505 36.3006Z" fill="#00A0E4"/>
<path d="M5.01016 47.158L4.06197 50.4369H4.83887C5.39352 50.4369 5.79522 50.3533 6.044 50.1861C6.29277 50.0148 6.50688 49.7008 6.68632 49.244H6.91266L6.06235 52.2538H5.81765C5.89106 52.0009 5.92777 51.7848 5.92777 51.6053C5.92777 51.43 5.89106 51.2893 5.81765 51.1832C5.74832 51.0772 5.65044 50.9997 5.52402 50.9508C5.40167 50.8978 5.14066 50.8713 4.741 50.8713H3.95186L3.15048 53.6179C3.07299 53.883 3.03425 54.0849 3.03425 54.2236C3.03425 54.3296 3.08523 54.4234 3.18718 54.505C3.25651 54.5621 3.42984 54.5906 3.70716 54.5906H4.44124C5.2365 54.5906 5.87271 54.4499 6.34986 54.1685C6.8311 53.8871 7.26135 53.3977 7.64063 52.7003H7.86697L7.08395 55.0066H0.672947L0.752473 54.7802C1.07058 54.7721 1.28468 54.7435 1.3948 54.6946C1.55793 54.6212 1.6762 54.5274 1.7496 54.4132C1.85972 54.246 1.99022 53.8953 2.14111 53.361L3.59705 48.357C3.71124 47.9533 3.76833 47.6454 3.76833 47.4333C3.76833 47.2783 3.71328 47.158 3.60317 47.0724C3.49713 46.9826 3.2871 46.9378 2.97308 46.9378H2.84461L2.91802 46.7114H8.87634L8.36248 48.7118H8.13613C8.16468 48.5242 8.17896 48.3672 8.17896 48.2408C8.17896 48.0246 8.12594 47.8432 8.0199 47.6963C7.88124 47.5087 7.67937 47.366 7.41429 47.2681C7.21853 47.1947 6.76788 47.158 6.06235 47.158H5.01016Z" fill="#007DC5"/>
<path d="M12.3849 49.4704L11.5713 52.2538C12.3339 51.1159 12.9171 50.3676 13.3209 50.0087C13.7287 49.6498 14.1202 49.4704 14.4954 49.4704C14.6993 49.4704 14.8665 49.5377 14.997 49.6722C15.1316 49.8068 15.1989 49.9822 15.1989 50.1983C15.1989 50.443 15.1398 50.7693 15.0215 51.1771L14.2752 53.7525C14.1895 54.0502 14.1467 54.2317 14.1467 54.297C14.1467 54.3541 14.163 54.403 14.1957 54.4438C14.2283 54.4805 14.263 54.4989 14.2997 54.4989C14.3486 54.4989 14.4077 54.4723 14.4771 54.4193C14.6932 54.248 14.9297 53.987 15.1867 53.6363L15.3763 53.7525C14.997 54.2949 14.6382 54.6824 14.2997 54.9148C14.0631 55.0739 13.8511 55.1534 13.6635 55.1534C13.5126 55.1534 13.3922 55.1065 13.3025 55.0127C13.2128 54.923 13.1679 54.8006 13.1679 54.6457C13.1679 54.4499 13.2373 54.1135 13.3759 53.6363L14.0856 51.1771C14.1753 50.8713 14.2201 50.6327 14.2201 50.4614C14.2201 50.3798 14.1936 50.3146 14.1406 50.2656C14.0876 50.2126 14.0223 50.1861 13.9449 50.1861C13.8307 50.1861 13.694 50.235 13.535 50.3329C13.2332 50.5164 12.9192 50.8203 12.5929 51.2444C12.2667 51.6645 11.922 52.2028 11.5591 52.8594C11.3674 53.206 11.2083 53.5853 11.0819 53.9972L10.7761 55.0066H9.85845L10.9718 51.1771C11.1023 50.7163 11.1676 50.439 11.1676 50.3452C11.1676 50.2554 11.1309 50.1779 11.0575 50.1127C10.9881 50.0434 10.9004 50.0087 10.7944 50.0087C10.7455 50.0087 10.6598 50.0169 10.5375 50.0332L10.305 50.0699L10.2683 49.8497L12.3849 49.4704Z" fill="#007DC5"/>
<path d="M20.4856 46.3077L18.7666 52.2477C19.5089 51.1302 20.088 50.388 20.504 50.0209C20.92 49.6539 21.3176 49.4704 21.6969 49.4704C21.8926 49.4704 22.0557 49.5377 22.1862 49.6722C22.3168 49.8068 22.382 49.9863 22.382 50.2106C22.382 50.4797 22.3249 50.806 22.2107 51.1894L21.4644 53.7525C21.3706 54.0625 21.3237 54.2338 21.3237 54.2664C21.3237 54.3235 21.34 54.3704 21.3726 54.4071C21.4093 54.4438 21.4501 54.4621 21.495 54.4621C21.548 54.4621 21.6092 54.4356 21.6785 54.3826C21.911 54.2032 22.1414 53.9544 22.3698 53.6363L22.5594 53.7525C22.4207 53.9687 22.227 54.2073 21.9783 54.4683C21.7336 54.7252 21.5215 54.9046 21.3421 55.0066C21.1667 55.1045 21.0097 55.1534 20.871 55.1534C20.7201 55.1534 20.5957 55.1045 20.4979 55.0066C20.4041 54.9128 20.3572 54.7904 20.3572 54.6395C20.3572 54.4601 20.4285 54.1257 20.5713 53.6363L21.2748 51.1894C21.3645 50.8835 21.4093 50.6429 21.4093 50.4675C21.4093 50.3859 21.3828 50.3207 21.3298 50.2717C21.2809 50.2228 21.2156 50.1983 21.1341 50.1983C21.0158 50.1983 20.8812 50.2432 20.7303 50.3329C20.453 50.5042 20.1329 50.8223 19.7699 51.2872C19.672 51.4137 19.3458 51.9234 18.7911 52.8166C18.6198 53.1021 18.4791 53.414 18.369 53.7525L17.9775 55.0066H17.0599L19.0725 48.0083L19.2866 47.2498C19.2866 47.1437 19.2418 47.0499 19.152 46.9684C19.0664 46.8868 18.9604 46.846 18.8339 46.846C18.7605 46.846 18.6484 46.8583 18.4975 46.8827L18.369 46.9011V46.6625L20.4856 46.3077Z" fill="#007DC5"/>
<path d="M29.8768 49.4704L28.684 53.6179L28.5494 54.1746C28.5371 54.2276 28.531 54.2725 28.531 54.3092C28.531 54.3745 28.5514 54.4316 28.5922 54.4805C28.6248 54.5172 28.6656 54.5356 28.7145 54.5356C28.7676 54.5356 28.8369 54.5029 28.9225 54.4377C29.0816 54.3194 29.2936 54.0747 29.5587 53.7036L29.7667 53.8504C29.4853 54.2745 29.1958 54.5988 28.8981 54.8231C28.6003 55.0433 28.3251 55.1534 28.0722 55.1534C27.8968 55.1534 27.7643 55.1085 27.6746 55.0188C27.5889 54.9332 27.5461 54.8068 27.5461 54.6395C27.5461 54.4397 27.591 54.1767 27.6807 53.8504L27.8092 53.3916C27.2749 54.089 26.7835 54.5763 26.3349 54.8537C26.0127 55.0535 25.6966 55.1534 25.3867 55.1534C25.089 55.1534 24.832 55.0311 24.6159 54.7864C24.3998 54.5376 24.2917 54.1971 24.2917 53.7648C24.2917 53.1163 24.4854 52.4332 24.8728 51.7154C25.2643 50.9936 25.7598 50.4165 26.3594 49.9842C26.8283 49.6417 27.2708 49.4704 27.6868 49.4704C27.9356 49.4704 28.1415 49.5356 28.3047 49.6661C28.4719 49.7966 28.5983 50.0128 28.684 50.3146L28.9042 49.6172L29.8768 49.4704ZM27.6991 49.7885C27.438 49.7885 27.1607 49.9108 26.8671 50.1555C26.4511 50.5022 26.08 51.016 25.7537 51.6971C25.4315 52.3782 25.2705 52.994 25.2705 53.5445C25.2705 53.8219 25.3398 54.0421 25.4784 54.2052C25.6171 54.3643 25.7762 54.4438 25.9556 54.4438C26.4001 54.4438 26.8834 54.1155 27.4054 53.4589C28.1028 52.5862 28.4515 51.691 28.4515 50.7734C28.4515 50.4267 28.3842 50.1759 28.2496 50.0209C28.115 49.866 27.9315 49.7885 27.6991 49.7885Z" fill="#007DC5"/>
<path d="M33.9523 49.4704L33.1387 52.2538C33.9013 51.1159 34.4845 50.3676 34.8883 50.0087C35.2961 49.6498 35.6876 49.4704 36.0628 49.4704C36.2667 49.4704 36.4339 49.5377 36.5644 49.6722C36.699 49.8068 36.7663 49.9822 36.7663 50.1983C36.7663 50.443 36.7072 50.7693 36.5889 51.1771L35.8426 53.7525C35.7569 54.0502 35.7141 54.2317 35.7141 54.297C35.7141 54.3541 35.7304 54.403 35.763 54.4438C35.7957 54.4805 35.8303 54.4989 35.867 54.4989C35.916 54.4989 35.9751 54.4723 36.0444 54.4193C36.2606 54.248 36.4971 53.987 36.7541 53.6363L36.9437 53.7525C36.5644 54.2949 36.2055 54.6824 35.867 54.9148C35.6305 55.0739 35.4184 55.1534 35.2308 55.1534C35.0799 55.1534 34.9596 55.1065 34.8699 55.0127C34.7802 54.923 34.7353 54.8006 34.7353 54.6457C34.7353 54.4499 34.8047 54.1135 34.9433 53.6363L35.6529 51.1771C35.7427 50.8713 35.7875 50.6327 35.7875 50.4614C35.7875 50.3798 35.761 50.3146 35.708 50.2656C35.655 50.2126 35.5897 50.1861 35.5122 50.1861C35.398 50.1861 35.2614 50.235 35.1024 50.3329C34.8006 50.5164 34.4866 50.8203 34.1603 51.2444C33.834 51.6645 33.4894 52.2028 33.1265 52.8594C32.9348 53.206 32.7757 53.5853 32.6493 53.9972L32.3434 55.0066H31.4258L32.5392 51.1771C32.6697 50.7163 32.7349 50.439 32.7349 50.3452C32.7349 50.2554 32.6982 50.1779 32.6248 50.1127C32.5555 50.0434 32.4678 50.0087 32.3618 50.0087C32.3129 50.0087 32.2272 50.0169 32.1049 50.0332L31.8724 50.0699L31.8357 49.8497L33.9523 49.4704Z" fill="#007DC5"/>
<path d="M43.2153 53.673C42.7912 54.1828 42.3629 54.558 41.9307 54.7986C41.4984 55.0351 41.0416 55.1534 40.5604 55.1534C39.9813 55.1534 39.5286 54.9903 39.2023 54.664C38.8801 54.3378 38.719 53.8993 38.719 53.3488C38.719 52.7248 38.8924 52.111 39.239 51.5075C39.5897 50.9039 40.0587 50.4145 40.646 50.0393C41.2374 49.66 41.8165 49.4704 42.3833 49.4704C42.8279 49.4704 43.1602 49.5642 43.3805 49.7518C43.6007 49.9353 43.7108 50.1616 43.7108 50.4308C43.7108 50.6837 43.6333 50.8998 43.4783 51.0792C43.3642 51.2179 43.2235 51.2872 43.0563 51.2872C42.9298 51.2872 42.8238 51.2465 42.7381 51.1649C42.6566 51.0833 42.6158 50.9814 42.6158 50.859C42.6158 50.7815 42.6301 50.7102 42.6586 50.6449C42.6912 50.5797 42.7545 50.5022 42.8483 50.4124C42.9461 50.3186 43.0053 50.2514 43.0257 50.2106C43.0461 50.1698 43.0563 50.127 43.0563 50.0821C43.0563 49.9965 43.0175 49.9251 42.94 49.868C42.8218 49.7864 42.6545 49.7457 42.4384 49.7457C42.0387 49.7457 41.6431 49.8864 41.2516 50.1678C40.8601 50.4492 40.5257 50.8488 40.2484 51.3668C39.914 51.9948 39.7468 52.6229 39.7468 53.2509C39.7468 53.6669 39.865 53.9972 40.1016 54.2419C40.3381 54.4825 40.6603 54.6028 41.0681 54.6028C41.3821 54.6028 41.6921 54.5254 41.9979 54.3704C42.3079 54.2113 42.6545 53.9259 43.0379 53.514L43.2153 53.673Z" fill="#007DC5"/>
<path d="M47.6228 47.0418C47.7941 47.0418 47.9389 47.1009 48.0571 47.2192C48.1754 47.3375 48.2345 47.4822 48.2345 47.6535C48.2345 47.8207 48.1734 47.9655 48.051 48.0878C47.9327 48.2061 47.79 48.2653 47.6228 48.2653C47.4556 48.2653 47.3108 48.2061 47.1885 48.0878C47.0702 47.9655 47.0111 47.8207 47.0111 47.6535C47.0111 47.4822 47.0702 47.3375 47.1885 47.2192C47.3067 47.1009 47.4515 47.0418 47.6228 47.0418ZM47.7023 49.4704L46.4911 53.7586C46.4095 54.0482 46.3687 54.2215 46.3687 54.2786C46.3687 54.3439 46.3871 54.3969 46.4238 54.4377C46.4646 54.4785 46.5115 54.4989 46.5645 54.4989C46.6257 54.4989 46.6991 54.4662 46.7847 54.401C47.0172 54.2175 47.2517 53.9564 47.4882 53.6179L47.7023 53.7586C47.425 54.1828 47.0987 54.5396 46.7235 54.8292C46.4462 55.0453 46.1811 55.1534 45.9283 55.1534C45.7611 55.1534 45.6245 55.1045 45.5184 55.0066C45.4124 54.9046 45.3594 54.7782 45.3594 54.6273C45.3594 54.4764 45.4104 54.2256 45.5123 53.8749L46.3076 51.1343C46.4381 50.6857 46.5033 50.4043 46.5033 50.2901C46.5033 50.2004 46.4707 50.127 46.4054 50.0699C46.3443 50.0128 46.2586 49.9842 46.1485 49.9842C46.0588 49.9842 45.8732 50.0067 45.5918 50.0515V49.8129L47.7023 49.4704Z" fill="#007DC5"/>
<path d="M51.8224 49.4704L51.0088 52.2538C51.7714 51.1159 52.3546 50.3676 52.7584 50.0087C53.1662 49.6498 53.5577 49.4704 53.9329 49.4704C54.1368 49.4704 54.304 49.5377 54.4345 49.6722C54.5691 49.8068 54.6364 49.9822 54.6364 50.1983C54.6364 50.443 54.5773 50.7693 54.459 51.1771L53.7127 53.7525C53.627 54.0502 53.5842 54.2317 53.5842 54.297C53.5842 54.3541 53.6005 54.403 53.6332 54.4438C53.6658 54.4805 53.7005 54.4989 53.7372 54.4989C53.7861 54.4989 53.8452 54.4723 53.9146 54.4193C54.1307 54.248 54.3672 53.987 54.6242 53.6363L54.8138 53.7525C54.4345 54.2949 54.0757 54.6824 53.7372 54.9148C53.5006 55.0739 53.2886 55.1534 53.101 55.1534C52.9501 55.1534 52.8297 55.1065 52.74 55.0127C52.6503 54.923 52.6054 54.8006 52.6054 54.6457C52.6054 54.4499 52.6748 54.1135 52.8134 53.6363L53.5231 51.1771C53.6128 50.8713 53.6576 50.6327 53.6576 50.4614C53.6576 50.3798 53.6311 50.3146 53.5781 50.2656C53.5251 50.2126 53.4598 50.1861 53.3824 50.1861C53.2682 50.1861 53.1315 50.235 52.9725 50.3329C52.6707 50.5164 52.3567 50.8203 52.0304 51.2444C51.7042 51.6645 51.3595 52.2028 50.9966 52.8594C50.8049 53.206 50.6458 53.5853 50.5194 53.9972L50.2136 55.0066H49.296L50.4093 51.1771C50.5398 50.7163 50.6051 50.439 50.6051 50.3452C50.6051 50.2554 50.5684 50.1779 50.495 50.1127C50.4256 50.0434 50.3379 50.0087 50.2319 50.0087C50.183 50.0087 50.0973 50.0169 49.975 50.0332L49.7425 50.0699L49.7058 49.8497L51.8224 49.4704Z" fill="#007DC5"/>
<path d="M62.7738 49.8497L62.5964 50.4859H61.5748C61.6523 50.7061 61.691 50.912 61.691 51.1037C61.691 51.642 61.4627 52.1212 61.0059 52.5413C60.5451 52.9614 59.9129 53.1938 59.1095 53.2387C58.6772 53.3692 58.353 53.5241 58.1368 53.7036C58.0553 53.7688 58.0145 53.8361 58.0145 53.9055C58.0145 53.987 58.0512 54.0625 58.1246 54.1318C58.198 54.1971 58.3836 54.2644 58.6813 54.3337L59.8681 54.609C60.5247 54.7639 60.959 54.9475 61.1711 55.1595C61.3791 55.3757 61.483 55.6244 61.483 55.9058C61.483 56.2403 61.3587 56.5461 61.1099 56.8234C60.8652 57.1008 60.5043 57.3169 60.0271 57.4719C59.554 57.6309 59.03 57.7105 58.455 57.7105C57.9492 57.7105 57.4884 57.6493 57.0724 57.5269C56.6564 57.4087 56.3587 57.2476 56.1793 57.0437C55.9998 56.8398 55.9101 56.6297 55.9101 56.4136C55.9101 56.2382 55.9693 56.0547 56.0875 55.863C56.2017 55.6754 56.3465 55.5205 56.5219 55.3981C56.632 55.3206 56.944 55.1371 57.4578 54.8475C57.2702 54.7007 57.1764 54.5396 57.1764 54.3643C57.1764 54.2011 57.258 54.0278 57.4211 53.8443C57.5883 53.6608 57.9391 53.4589 58.4733 53.2387C58.0247 53.153 57.6679 52.9654 57.4028 52.6759C57.1418 52.3863 57.0113 52.0641 57.0113 51.7093C57.0113 51.1302 57.2641 50.6123 57.7698 50.1555C58.2796 49.6988 58.9566 49.4704 59.8008 49.4704C60.1066 49.4704 60.3575 49.501 60.5532 49.5621C60.749 49.6233 60.9386 49.7191 61.1221 49.8497H62.7738ZM60.6511 50.8101C60.6511 50.4838 60.5593 50.2269 60.3758 50.0393C60.1964 49.8517 59.9598 49.7579 59.6662 49.7579C59.2053 49.7579 58.824 49.9904 58.5222 50.4553C58.2245 50.9161 58.0757 51.3973 58.0757 51.899C58.0757 52.213 58.1715 52.4699 58.3632 52.6698C58.5549 52.8696 58.7873 52.9695 59.0606 52.9695C59.2767 52.9695 59.4847 52.9104 59.6845 52.7921C59.8885 52.6738 60.0597 52.5107 60.1984 52.3027C60.3371 52.0947 60.4472 51.8296 60.5287 51.5075C60.6103 51.1853 60.6511 50.9528 60.6511 50.8101ZM57.7209 55.0066C57.3905 55.1575 57.1397 55.3512 56.9684 55.5877C56.8012 55.8243 56.7176 56.0567 56.7176 56.2851C56.7176 56.5543 56.84 56.7766 57.0847 56.9519C57.4354 57.2048 57.9492 57.3312 58.6262 57.3312C59.2094 57.3312 59.707 57.2313 60.1189 57.0314C60.5349 56.8357 60.7428 56.5808 60.7428 56.2668C60.7428 56.1077 60.6654 55.9568 60.5104 55.8141C60.3595 55.6713 60.0638 55.5551 59.6234 55.4654C59.3828 55.4165 58.7486 55.2635 57.7209 55.0066Z" fill="#007DC5"/>
<path d="M69.85 50.4124H73.6795L74.2851 48.3631C74.3993 47.9635 74.4564 47.6535 74.4564 47.4333C74.4564 47.3273 74.4299 47.2375 74.3769 47.1641C74.3279 47.0866 74.2504 47.0295 74.1444 46.9928C74.0384 46.9561 73.8304 46.9378 73.5204 46.9378L73.5816 46.7114H76.9217L76.8483 46.9378C76.5669 46.9337 76.3569 46.9623 76.2182 47.0234C76.0224 47.1091 75.8777 47.2192 75.7839 47.3538C75.6493 47.5454 75.5127 47.8819 75.374 48.3631L73.9119 53.3733C73.7896 53.7892 73.7284 54.0869 73.7284 54.2664C73.7284 54.4214 73.7814 54.5396 73.8875 54.6212C73.9976 54.6987 74.2566 54.7517 74.6644 54.7802L74.5971 55.0066H71.3671L71.4528 54.7802C71.7709 54.7721 71.9829 54.7435 72.089 54.6946C72.2521 54.6212 72.3704 54.5274 72.4438 54.4132C72.5498 54.2542 72.6803 53.9075 72.8353 53.3733L73.5816 50.8345H69.7338L68.9813 53.3733C68.8631 53.7811 68.8039 54.0788 68.8039 54.2664C68.8039 54.4214 68.857 54.5396 68.963 54.6212C69.069 54.6987 69.326 54.7517 69.7338 54.7802L69.6848 55.0066H66.4304L66.5099 54.7802C66.8321 54.7721 67.0462 54.7435 67.1523 54.6946C67.3154 54.6212 67.4357 54.5274 67.5132 54.4132C67.6192 54.246 67.7497 53.8993 67.9047 53.3733L69.3729 48.3631C69.4911 47.9553 69.5503 47.6454 69.5503 47.4333C69.5503 47.3273 69.5238 47.2375 69.4707 47.1641C69.4218 47.0866 69.3423 47.0295 69.2322 46.9928C69.1261 46.9561 68.9161 46.9378 68.6021 46.9378L68.6755 46.7114H71.9483L71.881 46.9378C71.6077 46.9337 71.4059 46.9623 71.2754 47.0234C71.0837 47.105 70.943 47.2131 70.8533 47.3476C70.7309 47.5271 70.5963 47.8656 70.4495 48.3631L69.85 50.4124Z" fill="#007DC5"/>
<path d="M78.4079 52.7003C78.3794 52.9043 78.3651 53.0735 78.3651 53.2081C78.3651 53.571 78.4936 53.881 78.7505 54.1379C79.0074 54.3908 79.3194 54.5172 79.6865 54.5172C79.9801 54.5172 80.2615 54.4581 80.5306 54.3398C80.8039 54.2175 81.2076 53.9503 81.7419 53.5384L81.8704 53.7158C80.9038 54.6742 79.9821 55.1534 79.1053 55.1534C78.5099 55.1534 78.0613 54.9658 77.7595 54.5906C77.4577 54.2154 77.3068 53.8015 77.3068 53.3488C77.3068 52.7411 77.4944 52.1192 77.8696 51.483C78.2448 50.8468 78.7158 50.3533 79.2827 50.0026C79.8496 49.6478 80.4328 49.4704 81.0323 49.4704C81.4646 49.4704 81.7847 49.5581 81.9927 49.7334C82.2007 49.9088 82.3047 50.1168 82.3047 50.3574C82.3047 50.6959 82.1701 51.0201 81.9009 51.3301C81.5461 51.7338 81.0241 52.0601 80.3349 52.3088C79.8781 52.476 79.2358 52.6065 78.4079 52.7003ZM78.4507 52.4006C79.0543 52.3313 79.5458 52.213 79.925 52.0458C80.4267 51.8215 80.8019 51.5544 81.0506 51.2444C81.3035 50.9304 81.4299 50.6327 81.4299 50.3513C81.4299 50.18 81.3748 50.0413 81.2647 49.9353C81.1587 49.8293 81.0058 49.7762 80.8059 49.7762C80.3899 49.7762 79.9475 49.9985 79.4785 50.443C79.0135 50.8835 78.671 51.536 78.4507 52.4006Z" fill="#007DC5"/>
<path d="M89.226 49.4704L88.0331 53.6179L87.8985 54.1746C87.8863 54.2276 87.8801 54.2725 87.8801 54.3092C87.8801 54.3745 87.9005 54.4316 87.9413 54.4805C87.9739 54.5172 88.0147 54.5356 88.0637 54.5356C88.1167 54.5356 88.186 54.5029 88.2716 54.4377C88.4307 54.3194 88.6428 54.0747 88.9079 53.7036L89.1158 53.8504C88.8344 54.2745 88.5449 54.5988 88.2472 54.8231C87.9495 55.0433 87.6742 55.1534 87.4213 55.1534C87.246 55.1534 87.1134 55.1085 87.0237 55.0188C86.9381 54.9332 86.8952 54.8068 86.8952 54.6395C86.8952 54.4397 86.9401 54.1767 87.0298 53.8504L87.1583 53.3916C86.624 54.089 86.1326 54.5763 85.684 54.8537C85.3618 55.0535 85.0458 55.1534 84.7358 55.1534C84.4381 55.1534 84.1812 55.0311 83.965 54.7864C83.7489 54.5376 83.6408 54.1971 83.6408 53.7648C83.6408 53.1163 83.8345 52.4332 84.222 51.7154C84.6135 50.9936 85.109 50.4165 85.7085 49.9842C86.1775 49.6417 86.62 49.4704 87.0359 49.4704C87.2847 49.4704 87.4907 49.5356 87.6538 49.6661C87.821 49.7966 87.9474 50.0128 88.0331 50.3146L88.2533 49.6172L89.226 49.4704ZM87.0482 49.7885C86.7872 49.7885 86.5098 49.9108 86.2162 50.1555C85.8002 50.5022 85.4291 51.016 85.1029 51.6971C84.7807 52.3782 84.6196 52.994 84.6196 53.5445C84.6196 53.8219 84.6889 54.0421 84.8276 54.2052C84.9662 54.3643 85.1253 54.4438 85.3047 54.4438C85.7493 54.4438 86.2325 54.1155 86.7545 53.4589C87.4519 52.5862 87.8006 51.691 87.8006 50.7734C87.8006 50.4267 87.7333 50.1759 87.5987 50.0209C87.4642 49.866 87.2806 49.7885 87.0482 49.7885Z" fill="#007DC5"/>
<path d="M94.2745 46.3077L92.1824 53.5874C92.0805 53.9503 92.0295 54.1726 92.0295 54.2542C92.0295 54.3153 92.0478 54.3663 92.0845 54.4071C92.1253 54.4479 92.1743 54.4683 92.2313 54.4683C92.3088 54.4683 92.3924 54.4336 92.4822 54.3643C92.6942 54.1971 92.9165 53.9381 93.149 53.5874L93.3325 53.777C92.945 54.3235 92.5882 54.7048 92.2619 54.9209C92.0213 55.0759 91.7929 55.1534 91.5768 55.1534C91.4218 55.1534 91.2913 55.1004 91.1853 54.9944C91.0833 54.8883 91.0323 54.766 91.0323 54.6273C91.0323 54.4805 91.0976 54.1787 91.2281 53.7219L92.8859 47.9839C93.0205 47.5149 93.0878 47.2457 93.0878 47.1764C93.0878 47.0785 93.049 46.999 92.9715 46.9378C92.8941 46.8725 92.7738 46.8399 92.6106 46.8399C92.5168 46.8399 92.3741 46.8542 92.1824 46.8827V46.6564L94.2745 46.3077Z" fill="#007DC5"/>
<path d="M98.0398 47.9533L97.5627 49.6172H98.5231L98.4191 50.0026H97.4648L96.4126 53.6118C96.2984 53.9993 96.2413 54.2501 96.2413 54.3643C96.2413 54.4336 96.2576 54.4866 96.2903 54.5233C96.3229 54.56 96.3616 54.5784 96.4065 54.5784C96.5085 54.5784 96.643 54.507 96.8102 54.3643C96.9081 54.2827 97.1263 54.0319 97.4648 53.6118L97.6667 53.7648C97.2915 54.3113 96.9367 54.6966 96.6023 54.9209C96.3739 55.0759 96.1435 55.1534 95.911 55.1534C95.7316 55.1534 95.5847 55.0984 95.4705 54.9882C95.3564 54.874 95.2993 54.7293 95.2993 54.5539C95.2993 54.3337 95.3645 53.9972 95.495 53.5445L96.5166 50.0026H95.5929L95.6541 49.764C96.1027 49.6417 96.4758 49.4602 96.7735 49.2196C97.0713 48.9749 97.4036 48.5528 97.7707 47.9533H98.0398Z" fill="#007DC5"/>
<path d="M102.699 46.3077L100.98 52.2477C101.722 51.1302 102.301 50.388 102.717 50.0209C103.133 49.6539 103.53 49.4704 103.91 49.4704C104.106 49.4704 104.269 49.5377 104.399 49.6722C104.53 49.8068 104.595 49.9863 104.595 50.2106C104.595 50.4797 104.538 50.806 104.424 51.1894L103.677 53.7525C103.583 54.0625 103.537 54.2338 103.537 54.2664C103.537 54.3235 103.553 54.3704 103.586 54.4071C103.622 54.4438 103.663 54.4621 103.708 54.4621C103.761 54.4621 103.822 54.4356 103.891 54.3826C104.124 54.2032 104.354 53.9544 104.583 53.6363L104.772 53.7525C104.634 53.9687 104.44 54.2073 104.191 54.4683C103.946 54.7252 103.734 54.9046 103.555 55.0066C103.38 55.1045 103.223 55.1534 103.084 55.1534C102.933 55.1534 102.809 55.1045 102.711 55.0066C102.617 54.9128 102.57 54.7904 102.57 54.6395C102.57 54.4601 102.641 54.1257 102.784 53.6363L103.488 51.1894C103.577 50.8835 103.622 50.6429 103.622 50.4675C103.622 50.3859 103.596 50.3207 103.543 50.2717C103.494 50.2228 103.429 50.1983 103.347 50.1983C103.229 50.1983 103.094 50.2432 102.943 50.3329C102.666 50.5042 102.346 50.8223 101.983 51.2872C101.885 51.4137 101.559 51.9234 101.004 52.8166C100.833 53.1021 100.692 53.414 100.582 53.7525L100.19 55.0066H99.2728L101.285 48.0083L101.5 47.2498C101.5 47.1437 101.455 47.0499 101.365 46.9684C101.279 46.8868 101.173 46.846 101.047 46.846C100.973 46.846 100.861 46.8583 100.71 46.8827L100.582 46.9011V46.6625L102.699 46.3077Z" fill="#007DC5"/>
</g>
<defs>
<clipPath id="clip0_472_440">
<rect width="105" height="65" fill="white" transform="translate(0.65918 0.236572)"/>
</clipPath>
</defs>
</svg>
