<svg width="170" height="127" viewBox="0 0 170 127" fill="none" xmlns="http://www.w3.org/2000/svg">
<circle cx="6.39863" cy="6.91597" r="6.00972" fill="#CEE8E3"/>
<circle cx="96.2993" cy="6.91597" r="6.00972" fill="#CEE8E3"/>
<circle cx="28.8737" cy="6.91597" r="6.00972" fill="#CEE8E3"/>
<circle cx="118.774" cy="6.91597" r="6.00972" fill="#CEE8E3"/>
<circle cx="51.3488" cy="6.91597" r="6.00972" fill="#CEE8E3"/>
<circle cx="141.249" cy="6.91597" r="6.00972" fill="#CEE8E3"/>
<circle cx="73.8239" cy="6.91597" r="6.00972" fill="#CEE8E3"/>
<circle cx="163.725" cy="6.91597" r="6.00972" fill="#CEE8E3"/>
<circle cx="6.39863" cy="97.6699" r="6.00972" fill="#CEE8E3"/>
<circle cx="96.2993" cy="97.6699" r="6.00972" fill="#CEE8E3"/>
<circle cx="28.8737" cy="97.6699" r="6.00972" fill="#CEE8E3"/>
<circle cx="118.774" cy="97.6699" r="6.00972" fill="#CEE8E3"/>
<circle cx="51.3488" cy="97.6699" r="6.00972" fill="#CEE8E3"/>
<circle cx="141.249" cy="97.6699" r="6.00972" fill="#CEE8E3"/>
<circle cx="73.8239" cy="97.6699" r="6.00972" fill="#CEE8E3"/>
<circle cx="163.725" cy="97.6699" r="6.00972" fill="#CEE8E3"/>
<circle cx="6.39863" cy="52.2929" r="6.00972" fill="#CEE8E3"/>
<circle cx="96.2993" cy="52.2929" r="6.00972" fill="#CEE8E3"/>
<circle cx="28.8737" cy="52.2929" r="6.00972" fill="#CEE8E3"/>
<circle cx="118.774" cy="52.2929" r="6.00972" fill="#CEE8E3"/>
<circle cx="51.3488" cy="52.2929" r="6.00972" fill="#CEE8E3"/>
<circle cx="141.249" cy="52.2929" r="6.00972" fill="#CEE8E3"/>
<circle cx="73.8239" cy="52.2929" r="6.00972" fill="#CEE8E3"/>
<circle cx="163.725" cy="52.2929" r="6.00972" fill="#CEE8E3"/>
<circle cx="6.39863" cy="29.6044" r="6.00972" fill="#CEE8E3"/>
<circle cx="96.2993" cy="29.6044" r="6.00972" fill="#CEE8E3"/>
<circle cx="28.8737" cy="29.6044" r="6.00972" fill="#CEE8E3"/>
<circle cx="118.774" cy="29.6044" r="6.00972" fill="#CEE8E3"/>
<circle cx="51.3488" cy="29.6044" r="6.00972" fill="#CEE8E3"/>
<circle cx="141.249" cy="29.6044" r="6.00972" fill="#CEE8E3"/>
<circle cx="73.8239" cy="29.6044" r="6.00972" fill="#CEE8E3"/>
<circle cx="163.725" cy="29.6044" r="6.00972" fill="#CEE8E3"/>
<circle cx="6.39863" cy="120.358" r="6.00972" fill="#CEE8E3"/>
<circle cx="96.2993" cy="120.358" r="6.00972" fill="#CEE8E3"/>
<circle cx="28.8737" cy="120.358" r="6.00972" fill="#CEE8E3"/>
<circle cx="118.774" cy="120.358" r="6.00972" fill="#CEE8E3"/>
<circle cx="51.3488" cy="120.358" r="6.00972" fill="#CEE8E3"/>
<circle cx="141.249" cy="120.358" r="6.00972" fill="#CEE8E3"/>
<circle cx="73.8239" cy="120.358" r="6.00972" fill="#CEE8E3"/>
<circle cx="163.725" cy="120.358" r="6.00972" fill="#CEE8E3"/>
<circle cx="6.39863" cy="74.9814" r="6.00972" fill="#CEE8E3"/>
<circle cx="96.2993" cy="74.9814" r="6.00972" fill="#CEE8E3"/>
<circle cx="28.8737" cy="74.9814" r="6.00972" fill="#CEE8E3"/>
<circle cx="118.774" cy="74.9814" r="6.00972" fill="#CEE8E3"/>
<circle cx="51.3488" cy="74.9814" r="6.00972" fill="#CEE8E3"/>
<circle cx="141.249" cy="74.9814" r="6.00972" fill="#CEE8E3"/>
<circle cx="73.8239" cy="74.9814" r="6.00972" fill="#CEE8E3"/>
<circle cx="163.725" cy="74.9814" r="6.00972" fill="#CEE8E3"/>
</svg>
