<svg width="49" height="33" viewBox="0 0 49 33" fill="none" xmlns="http://www.w3.org/2000/svg">
<path d="M40.4387 3.64797C39.5461 2.76065 38.4864 2.05677 37.32 1.57653C36.1536 1.0963 34.9033 0.849121 33.6408 0.849121C32.3782 0.849121 31.128 1.0963 29.9616 1.57653C28.7951 2.05677 27.7354 2.76065 26.8428 3.64797L24.9904 5.4886L23.138 3.64797C21.3351 1.85649 18.8898 0.85005 16.3401 0.85005C13.7903 0.85005 11.345 1.85649 9.54212 3.64797C7.73919 5.43945 6.72632 7.86921 6.72632 10.4027C6.72632 12.9363 7.73919 15.366 9.54212 17.1575L11.3945 18.9982L24.9904 32.5077L38.5863 18.9982L40.4387 17.1575C41.3317 16.2706 42.0401 15.2176 42.5234 14.0586C43.0067 12.8996 43.2555 11.6573 43.2555 10.4027C43.2555 9.14818 43.0067 7.90592 42.5234 6.74691C42.0401 5.5879 41.3317 4.53487 40.4387 3.64797Z" fill="url(#paint0_linear_472_236)"/>
<foreignObject x="-24.3618" y="-16.845" width="97.4878" height="65.8293"><div xmlns="http://www.w3.org/1999/xhtml" style="backdrop-filter:blur(12.5px);clip-path:url(#bgblur_0_472_236_clip_path);height:100%;width:100%"></div></foreignObject><path data-figma-bg-blur-radius="25" d="M20.4248 23.9843C20.0778 23.984 19.737 23.8924 19.4366 23.7187C19.1362 23.5451 18.8867 23.2955 18.7133 22.995L15.3396 16.9306L13.1829 20.1656C12.9973 20.4332 12.7485 20.6509 12.4585 20.7994C12.1686 20.9478 11.8465 21.0223 11.5208 21.0164H2.61685C2.09207 21.0164 1.58879 20.8079 1.21772 20.4369C0.846649 20.0658 0.638184 19.5625 0.638184 19.0378C0.638184 18.513 0.846649 18.0097 1.21772 17.6387C1.58879 17.2676 2.09207 17.0592 2.61685 17.0592H10.4622L13.8359 12.0038C14.0243 11.7221 14.282 11.4936 14.5842 11.3401C14.8863 11.1866 15.2229 11.1133 15.5615 11.1272C15.9001 11.1411 16.2295 11.2417 16.5181 11.4195C16.8067 11.5972 17.0447 11.8461 17.2095 12.1423L20.4248 18.0485L25.599 9.14469C25.7758 8.83832 26.0315 8.58495 26.3395 8.41095C26.6475 8.23696 26.9964 8.14871 27.3501 8.15538C27.6954 8.15747 28.0342 8.24988 28.3327 8.42343C28.6312 8.59699 28.8791 8.84565 29.0518 9.14469L33.7907 17.0592L35.7693 15.4961C36.12 15.2238 36.5521 15.0775 36.9961 15.0805H46.1474C46.6722 15.0805 47.1755 15.289 47.5465 15.6601C47.9176 16.0311 48.1261 16.5344 48.1261 17.0592C48.1261 17.5839 47.9176 18.0872 47.5465 18.4583C47.1755 18.8293 46.6722 19.0378 46.1474 19.0378H37.6886L34.4733 21.5803C34.2518 21.7625 33.9932 21.8944 33.7157 21.9668C33.4381 22.0392 33.1481 22.0504 32.8657 21.9996C32.5834 21.9488 32.3155 21.8372 32.0806 21.6725C31.8457 21.5079 31.6494 21.2941 31.5053 21.0461L27.3501 14.0319L22.1363 22.995C21.9628 23.2955 21.7134 23.5451 21.413 23.7187C21.1126 23.8924 20.7718 23.984 20.4248 23.9843Z" fill="white" fill-opacity="0.2"/>
<defs>
<clipPath id="bgblur_0_472_236_clip_path" transform="translate(24.3618 16.845)"><path d="M20.4248 23.9843C20.0778 23.984 19.737 23.8924 19.4366 23.7187C19.1362 23.5451 18.8867 23.2955 18.7133 22.995L15.3396 16.9306L13.1829 20.1656C12.9973 20.4332 12.7485 20.6509 12.4585 20.7994C12.1686 20.9478 11.8465 21.0223 11.5208 21.0164H2.61685C2.09207 21.0164 1.58879 20.8079 1.21772 20.4369C0.846649 20.0658 0.638184 19.5625 0.638184 19.0378C0.638184 18.513 0.846649 18.0097 1.21772 17.6387C1.58879 17.2676 2.09207 17.0592 2.61685 17.0592H10.4622L13.8359 12.0038C14.0243 11.7221 14.282 11.4936 14.5842 11.3401C14.8863 11.1866 15.2229 11.1133 15.5615 11.1272C15.9001 11.1411 16.2295 11.2417 16.5181 11.4195C16.8067 11.5972 17.0447 11.8461 17.2095 12.1423L20.4248 18.0485L25.599 9.14469C25.7758 8.83832 26.0315 8.58495 26.3395 8.41095C26.6475 8.23696 26.9964 8.14871 27.3501 8.15538C27.6954 8.15747 28.0342 8.24988 28.3327 8.42343C28.6312 8.59699 28.8791 8.84565 29.0518 9.14469L33.7907 17.0592L35.7693 15.4961C36.12 15.2238 36.5521 15.0775 36.9961 15.0805H46.1474C46.6722 15.0805 47.1755 15.289 47.5465 15.6601C47.9176 16.0311 48.1261 16.5344 48.1261 17.0592C48.1261 17.5839 47.9176 18.0872 47.5465 18.4583C47.1755 18.8293 46.6722 19.0378 46.1474 19.0378H37.6886L34.4733 21.5803C34.2518 21.7625 33.9932 21.8944 33.7157 21.9668C33.4381 22.0392 33.1481 22.0504 32.8657 21.9996C32.5834 21.9488 32.3155 21.8372 32.0806 21.6725C31.8457 21.5079 31.6494 21.2941 31.5053 21.0461L27.3501 14.0319L22.1363 22.995C21.9628 23.2955 21.7134 23.5451 21.413 23.7187C21.1126 23.8924 20.7718 23.984 20.4248 23.9843Z"/>
</clipPath><linearGradient id="paint0_linear_472_236" x1="6.72632" y1="15.6231" x2="42.3797" y2="15.8067" gradientUnits="userSpaceOnUse">
<stop stop-color="#FF7070"/>
<stop offset="1" stop-color="#FF7070" stop-opacity="0.65"/>
</linearGradient>
</defs>
</svg>
