<svg width="21" height="21" viewBox="0 0 21 21" fill="none" xmlns="http://www.w3.org/2000/svg">
<path d="M13.9922 7.5415C15.3183 7.5415 16.59 8.06829 17.5277 9.00597C18.4654 9.94365 18.9922 11.2154 18.9922 12.5415V18.3748H15.6589V12.5415C15.6589 12.0995 15.4833 11.6756 15.1707 11.363C14.8581 11.0504 14.4342 10.8748 13.9922 10.8748C13.5502 10.8748 13.1262 11.0504 12.8137 11.363C12.5011 11.6756 12.3255 12.0995 12.3255 12.5415V18.3748H8.99219V12.5415C8.99219 11.2154 9.51897 9.94365 10.4567 9.00597C11.3943 8.06829 12.6661 7.5415 13.9922 7.5415Z" fill="white"/>
<path d="M5.65951 8.37476H2.32617V18.3748H5.65951V8.37476Z" fill="white"/>
<path d="M3.99284 5.87484C4.91331 5.87484 5.65951 5.12865 5.65951 4.20817C5.65951 3.2877 4.91331 2.5415 3.99284 2.5415C3.07236 2.5415 2.32617 3.2877 2.32617 4.20817C2.32617 5.12865 3.07236 5.87484 3.99284 5.87484Z" fill="white"/>
</svg>
