<svg width="60" height="61" viewBox="0 0 60 61" fill="none" xmlns="http://www.w3.org/2000/svg">
<path d="M27.1875 17.7812V38.4062C27.1841 41.3889 25.9978 44.2484 23.8887 46.3575C21.7797 48.4665 18.9202 49.6529 15.9375 49.6562C15.4402 49.6562 14.9633 49.4587 14.6117 49.1071C14.26 48.7554 14.0625 48.2785 14.0625 47.7812C14.0625 47.284 14.26 46.8071 14.6117 46.4554C14.9633 46.1038 15.4402 45.9062 15.9375 45.9062C17.9259 45.904 19.8323 45.1131 21.2383 43.7071C22.6444 42.301 23.4353 40.3947 23.4375 38.4062V36.5312H9.375C8.38079 36.5301 7.42762 36.1347 6.72461 35.4316C6.02159 34.7286 5.62614 33.7755 5.625 32.7812V17.7812C5.62614 16.787 6.02159 15.8339 6.72461 15.1309C7.42762 14.4278 8.38079 14.0324 9.375 14.0312H23.4375C24.4317 14.0324 25.3849 14.4278 26.0879 15.1309C26.7909 15.8339 27.1864 16.787 27.1875 17.7812ZM50.625 14.0312H36.5625C35.5683 14.0324 34.6151 14.4278 33.9121 15.1309C33.2091 15.8339 32.8136 16.787 32.8125 17.7812V32.7812C32.8136 33.7755 33.2091 34.7286 33.9121 35.4316C34.6151 36.1347 35.5683 36.5301 36.5625 36.5312H50.625V38.4062C50.6228 40.3947 49.8319 42.301 48.4258 43.7071C47.0198 45.1131 45.1134 45.904 43.125 45.9062C42.6277 45.9062 42.1508 46.1038 41.7992 46.4554C41.4475 46.8071 41.25 47.284 41.25 47.7812C41.25 48.2785 41.4475 48.7554 41.7992 49.1071C42.1508 49.4587 42.6277 49.6562 43.125 49.6562C46.1077 49.6529 48.9672 48.4665 51.0762 46.3575C53.1853 44.2484 54.3716 41.3889 54.375 38.4062V17.7812C54.3739 16.787 53.9784 15.8339 53.2754 15.1309C52.5724 14.4278 51.6192 14.0324 50.625 14.0312Z" fill="#006D5B"/>
</svg>
