<svg width="60" height="61" viewBox="0 0 60 61" fill="none" xmlns="http://www.w3.org/2000/svg">
<path d="M32.8125 43.8115L32.8125 23.1865C32.8159 20.2039 34.0022 17.3444 36.1113 15.2353C38.2203 13.1262 41.0798 11.9399 44.0625 11.9365C44.5598 11.9365 45.0367 12.1341 45.3883 12.4857C45.74 12.8373 45.9375 13.3142 45.9375 13.8115C45.9375 14.3088 45.74 14.7857 45.3883 15.1374C45.0367 15.489 44.5598 15.6865 44.0625 15.6865C42.0741 15.6888 40.1677 16.4796 38.7617 17.8857C37.3556 19.2917 36.5647 21.1981 36.5625 23.1865L36.5625 25.0615L50.625 25.0615C51.6192 25.0627 52.5724 25.4581 53.2754 26.1611C53.9784 26.8641 54.3739 27.8173 54.375 28.8115L54.375 43.8115C54.3739 44.8057 53.9784 45.7589 53.2754 46.4619C52.5724 47.1649 51.6192 47.5604 50.625 47.5615L36.5625 47.5615C35.5683 47.5604 34.6151 47.1649 33.9121 46.4619C33.2091 45.7589 32.8136 44.8057 32.8125 43.8115ZM9.375 47.5615L23.4375 47.5615C24.4317 47.5604 25.3849 47.1649 26.0879 46.4619C26.7909 45.7589 27.1864 44.8057 27.1875 43.8115L27.1875 28.8115C27.1864 27.8173 26.7909 26.8641 26.0879 26.1611C25.3849 25.4581 24.4317 25.0627 23.4375 25.0615L9.375 25.0615L9.375 23.1865C9.37723 21.1981 10.1681 19.2917 11.5742 17.8857C12.9802 16.4797 14.8866 15.6888 16.875 15.6865C17.3723 15.6865 17.8492 15.489 18.2008 15.1374C18.5525 14.7857 18.75 14.3088 18.75 13.8115C18.75 13.3142 18.5525 12.8373 18.2008 12.4857C17.8492 12.1341 17.3723 11.9365 16.875 11.9365C13.8923 11.9399 11.0328 13.1262 8.92377 15.2353C6.81472 17.3444 5.62837 20.2039 5.625 23.1865L5.625 43.8115C5.62614 44.8057 6.02159 45.7589 6.72461 46.4619C7.42762 47.1649 8.38079 47.5604 9.375 47.5615Z" fill="#006D5B"/>
</svg>
