<svg width="21" height="21" viewBox="0 0 21 21" fill="none" xmlns="http://www.w3.org/2000/svg">
<path d="M19.8255 3.37483C19.0275 3.93773 18.1439 4.36826 17.2089 4.64983C16.707 4.07276 16.04 3.66374 15.298 3.47811C14.5561 3.29247 13.7751 3.33916 13.0606 3.61188C12.3461 3.88459 11.7326 4.37017 11.303 5.00293C10.8735 5.63569 10.6486 6.38511 10.6589 7.14983V7.98317C9.19438 8.02114 7.74325 7.69635 6.4347 7.03771C5.12614 6.37907 4.00079 5.40703 3.15885 4.20817C3.15885 4.20817 -0.174479 11.7082 7.32552 15.0415C5.60929 16.2065 3.56482 16.7906 1.49219 16.7082C8.99219 20.8748 18.1589 16.7082 18.1589 7.12483C18.1581 6.89271 18.1358 6.66116 18.0922 6.43317C18.9427 5.59441 19.5429 4.53543 19.8255 3.37483Z" fill="white"/>
</svg>
